<svg width="16" height="16" viewBox="0 0 16 16" fill="none" xmlns="http://www.w3.org/2000/svg">
<path d="M13.5 7V4" stroke="black" stroke-linecap="round" stroke-linejoin="round"/>
<path d="M15 5.5H12" stroke="black" stroke-linecap="round" stroke-linejoin="round"/>
<path d="M10.5 1.5V3.5" stroke="black" stroke-linecap="round" stroke-linejoin="round"/>
<path d="M11.5 2.5H9.49997" stroke="black" stroke-linecap="round" stroke-linejoin="round"/>
<path d="M13.5436 9.53751C12.562 9.81279 11.5247 9.82181 10.5384 9.56365C9.5521 9.30549 8.65228 8.78945 7.93136 8.06853C7.21044 7.34761 6.6944 6.44779 6.43624 5.46149C6.17808 4.47518 6.1871 3.43793 6.46238 2.45626C5.49454 2.72564 4.61418 3.2439 3.90897 3.95941C3.20376 4.67491 2.69832 5.5627 2.443 6.53434C2.18767 7.50598 2.19137 8.52756 2.45373 9.49732C2.71609 10.4671 3.22796 11.3512 3.93833 12.0616C4.64871 12.7719 5.53281 13.2838 6.50257 13.5462C7.47233 13.8085 8.49391 13.8122 9.46555 13.5569C10.4372 13.3016 11.325 12.7961 12.0405 12.0909C12.756 11.3857 13.2742 10.5053 13.5436 9.53751Z" stroke="black" stroke-linecap="round" stroke-linejoin="round"/>
</svg>
